# xmcd
#
# Track frame offsets: 
#        150
#        4292
#        21522
#        34742
#        49697
#        69272
#        86307
#        100432
#        116525
#        132705
#        152940
#        171697
#        188877
#        204817
#        219757
#        237157
#        253770
#        268942
#        286380
#        303737
#        318225
#        324555
#
# Disc length: 4530 seconds
#
# Revision: 3
# Processed by: cddbd v1.5.1PL0 Copyright (c) Steve Scherf et al.
# Submitted via: ExactAudioCopy v0.95a5
#
DISCID=4511b016
DTITLE=Various Artist - Herzessenz
DYEAR=2002
DGENRE=Rap
TTITLE0=Roey Marquis II. featuring Ben Becker - Intro
TTITLE1=Roey Marquis II. featuring Tefla and Jaleel - Nachtschwärmer
TTITLE2=Roey Marquis II. featuring Creutzfeld and Jakob - Swing
TTITLE3=Roey Marquis II. featuring Olli Banjo - Pickel
TTITLE4=Roey Marquis II. featuring Vanessa Mason and Pal One - Karma
TTITLE5=Roey Marquis II. featuring Schivv, Pyranja and Tatwaffe - EHM
TTITLE6=Roey Marquis II. featuring Lunafrow - Musiktherapie
TTITLE7=Roey Marquis II. featuring Dendemann - Siebenschläfer
TTITLE8=Roey Marquis II. featuring Blumentopf - Niemand
TTITLE9=Roey Marquis II. featuring Breite Seite and Karolina - Klarsicht
TTITLE10=Roey Marquis II. featuring Samir and Tatwaffe - Weg 1
TTITLE11=Roey Marquis II - All-Chemie
TTITLE12=Roey Marquis II. featuring Curse, Germany and Italo Reno - Tsch
TTITLE12=ukka
TTITLE13=Roey Marquis II. featuring King Kool Savas, Jonesmann and Eko /
TTITLE13=Aufdrehn
TTITLE14=Roey Marquis II. featuring S.D. - F.F.
TTITLE15=Roey Marquis II. featuring Jonesmann and Bintia - Willenskraft
TTITLE16=Roey Marquis II. featuring Aphroe - Hingabe
TTITLE17=Roey Marquis II. featuring Sieben-Treyer - Eingeklemmt
TTITLE18=Roey Marquis II. featuring Instinkt, Samir and Lord Wax - Mysel
TTITLE18=f
TTITLE19=Roey Marquis II. featuring Pal One - Verstopfung
TTITLE20=Roey Marquis II. featuring Twister - Ignored Silence
TTITLE21=Roey Marquis II. featuring Azad, Jeyz, Instinkt and Sezai - Mei
TTITLE21=n Pein
EXTD=YEAR: 2002  ID3G:  15
EXTT0=
EXTT1=
EXTT2=
EXTT3=
EXTT4=
EXTT5=
EXTT6=
EXTT7=
EXTT8=
EXTT9=
EXTT10=
EXTT11=
EXTT12=
EXTT13=
EXTT14=
EXTT15=
EXTT16=
EXTT17=
EXTT18=
EXTT19=
EXTT20=
EXTT21=
PLAYORDER=
